<svg width="283" height="283" viewBox="0 0 283 283" fill="none" xmlns="http://www.w3.org/2000/svg">
<rect width="283" height="283" rx="141.5" fill="url(#paint0_radial_103_531)"/>
<path d="M39.874 136V108.616H29.0748V102.252H58.4834V108.616H47.6841V136H39.874ZM69.948 115.848H86.195V121.922H69.948V115.848ZM70.5265 129.733H88.8948V136H62.7646V102.252H88.2681V108.52H70.5265V129.733ZM106.277 136.579C103.577 136.579 100.989 136.225 98.5147 135.518C96.0398 134.779 94.0471 133.831 92.5365 132.673L95.1881 126.792C96.6344 127.82 98.3379 128.672 100.298 129.347C102.291 129.99 104.3 130.311 106.325 130.311C107.868 130.311 109.105 130.166 110.037 129.877C111.001 129.556 111.708 129.122 112.158 128.576C112.608 128.029 112.833 127.402 112.833 126.695C112.833 125.795 112.48 125.088 111.773 124.574C111.066 124.028 110.133 123.594 108.976 123.272C107.819 122.919 106.534 122.597 105.12 122.308C103.737 121.987 102.339 121.601 100.925 121.151C99.5432 120.701 98.2736 120.123 97.1165 119.415C95.9595 118.708 95.0113 117.776 94.2721 116.619C93.565 115.462 93.2115 113.984 93.2115 112.184C93.2115 110.255 93.7257 108.504 94.7542 106.929C95.8149 105.322 97.3897 104.052 99.4789 103.12C101.6 102.156 104.252 101.674 107.434 101.674C109.555 101.674 111.644 101.931 113.701 102.445C115.758 102.927 117.574 103.667 119.149 104.663L116.738 110.593C115.163 109.693 113.589 109.034 112.014 108.616C110.439 108.166 108.896 107.941 107.385 107.941C105.875 107.941 104.637 108.118 103.673 108.472C102.709 108.825 102.018 109.291 101.6 109.87C101.182 110.416 100.973 111.059 100.973 111.798C100.973 112.666 101.327 113.373 102.034 113.919C102.741 114.434 103.673 114.852 104.83 115.173C105.987 115.494 107.257 115.816 108.639 116.137C110.053 116.459 111.451 116.828 112.833 117.246C114.247 117.664 115.533 118.226 116.69 118.933C117.847 119.64 118.779 120.573 119.486 121.73C120.226 122.887 120.595 124.349 120.595 126.117C120.595 128.013 120.065 129.749 119.004 131.324C117.944 132.898 116.353 134.168 114.231 135.132C112.142 136.096 109.491 136.579 106.277 136.579ZM132.531 136V108.616H121.731V102.252H151.14V108.616H140.341V136H132.531ZM155.421 136V102.252H163.231V136H155.421ZM171.319 136V102.252H177.78L192.146 126.069H188.723L202.849 102.252H209.261L209.358 136H202.03L201.981 113.486H203.331L192.05 132.432H188.531L177.008 113.486H178.647V136H171.319ZM233.835 136.579C231.167 136.579 228.693 136.145 226.411 135.277C224.161 134.409 222.2 133.188 220.529 131.613C218.89 130.038 217.604 128.19 216.672 126.069C215.772 123.947 215.322 121.633 215.322 119.126C215.322 116.619 215.772 114.305 216.672 112.184C217.604 110.063 218.906 108.215 220.577 106.64C222.248 105.065 224.209 103.843 226.459 102.976C228.709 102.108 231.151 101.674 233.787 101.674C236.455 101.674 238.897 102.108 241.115 102.976C243.365 103.843 245.309 105.065 246.948 106.64C248.62 108.215 249.921 110.063 250.854 112.184C251.786 114.273 252.252 116.587 252.252 119.126C252.252 121.633 251.786 123.963 250.854 126.117C249.921 128.238 248.62 130.086 246.948 131.661C245.309 133.204 243.365 134.409 241.115 135.277C238.897 136.145 236.471 136.579 233.835 136.579ZM233.787 129.925C235.298 129.925 236.68 129.668 237.933 129.154C239.219 128.64 240.344 127.901 241.308 126.936C242.272 125.972 243.011 124.831 243.525 123.513C244.072 122.196 244.345 120.733 244.345 119.126C244.345 117.519 244.072 116.057 243.525 114.739C243.011 113.421 242.272 112.28 241.308 111.316C240.376 110.352 239.267 109.613 237.981 109.098C236.696 108.584 235.298 108.327 233.787 108.327C232.276 108.327 230.878 108.584 229.593 109.098C228.339 109.613 227.23 110.352 226.266 111.316C225.302 112.28 224.547 113.421 224 114.739C223.486 116.057 223.229 117.519 223.229 119.126C223.229 120.701 223.486 122.164 224 123.513C224.547 124.831 225.286 125.972 226.218 126.936C227.182 127.901 228.307 128.64 229.593 129.154C230.878 129.668 232.276 129.925 233.787 129.925ZM69.6619 181V147.252H76.1222L96.0332 171.551H92.8995V147.252H100.613V181H94.2012L74.242 156.702H77.3757V181H69.6619ZM108.677 181V147.252H116.487V181H108.677ZM120.14 181L135.181 147.252H142.895L157.985 181H149.789L137.447 151.206H140.533L128.143 181H120.14ZM127.66 173.768L129.733 167.838H147.089L149.211 173.768H127.66ZM161.565 181V147.252H169.375V174.636H186.297V181H161.565ZM201.687 181.579C198.988 181.579 196.4 181.225 193.926 180.518C191.451 179.779 189.458 178.831 187.947 177.673L190.599 171.792C192.045 172.82 193.749 173.672 195.709 174.347C197.702 174.99 199.711 175.311 201.736 175.311C203.278 175.311 204.516 175.166 205.448 174.877C206.412 174.556 207.119 174.122 207.569 173.576C208.019 173.029 208.244 172.402 208.244 171.695C208.244 170.795 207.891 170.088 207.184 169.574C206.476 169.028 205.544 168.594 204.387 168.272C203.23 167.919 201.945 167.597 200.53 167.308C199.148 166.987 197.75 166.601 196.336 166.151C194.954 165.701 193.684 165.123 192.527 164.415C191.37 163.708 190.422 162.776 189.683 161.619C188.976 160.462 188.622 158.984 188.622 157.184C188.622 155.255 189.137 153.504 190.165 151.929C191.226 150.322 192.801 149.052 194.89 148.12C197.011 147.156 199.663 146.674 202.845 146.674C204.966 146.674 207.055 146.931 209.112 147.445C211.169 147.927 212.985 148.667 214.56 149.663L212.149 155.593C210.574 154.693 208.999 154.034 207.425 153.616C205.85 153.166 204.307 152.941 202.796 152.941C201.286 152.941 200.048 153.118 199.084 153.472C198.12 153.825 197.429 154.291 197.011 154.87C196.593 155.416 196.384 156.059 196.384 156.798C196.384 157.666 196.738 158.373 197.445 158.919C198.152 159.434 199.084 159.852 200.241 160.173C201.398 160.494 202.668 160.816 204.05 161.137C205.464 161.459 206.862 161.828 208.244 162.246C209.658 162.664 210.944 163.226 212.101 163.933C213.258 164.64 214.19 165.573 214.897 166.73C215.636 167.887 216.006 169.349 216.006 171.117C216.006 173.013 215.476 174.749 214.415 176.324C213.354 177.898 211.764 179.168 209.642 180.132C207.553 181.096 204.902 181.579 201.687 181.579Z" fill="white"/>
<defs>
<radialGradient id="paint0_radial_103_531" cx="0" cy="0" r="1" gradientUnits="userSpaceOnUse" gradientTransform="translate(141.5 141.5) rotate(90) scale(141.5)">
<stop offset="0.305" stop-color="#E99FCC"/>
<stop offset="0.8" stop-color="#BFDFE0"/>
</radialGradient>
</defs>
</svg>
