<svg width="55" height="54" viewBox="0 0 55 54" fill="none" xmlns="http://www.w3.org/2000/svg">
<g clip-path="url(#clip0_77_24267)">
<path d="M24.0955 13.7993V17.1304H14.102V13.7993H24.0955ZM14.102 23.7927V20.4616H24.0955V23.7927H14.102ZM14.102 30.4551V27.1239H20.7643V30.4551H14.102ZM10.7708 13.7993V17.1304H7.43967V13.7993H10.7708ZM10.7708 20.4616V23.7927H7.43967V20.4616H10.7708ZM7.43967 30.4551V27.1239H10.7708V30.4551H7.43967ZM4.10851 3.80577V50.442H20.7643V53.7732H0.777344V0.474609H29.7949L44.0824 14.7622V20.4616H40.7513V17.1304H27.4266V3.80577H4.10851ZM30.7578 6.17402V13.7993H38.383L30.7578 6.17402ZM47.4136 27.1239H54.0759V53.7732H24.0955V27.1239H30.7578V23.7927H34.089V27.1239H44.0824V23.7927H47.4136V27.1239ZM50.7448 50.442V37.1174H27.4266V50.442H50.7448ZM50.7448 33.7862V30.4551H27.4266V33.7862H50.7448Z" fill="white"/>
</g>
<defs>
<clipPath id="clip0_77_24267">
<rect width="53.2986" height="53.2986" fill="white" transform="translate(0.777344 0.474609)"/>
</clipPath>
</defs>
</svg>
