<svg width="42" height="42" viewBox="0 0 42 42" fill="none" xmlns="http://www.w3.org/2000/svg">
<mask id="mask0_81_472" style="mask-type:luminance" maskUnits="userSpaceOnUse" x="0" y="0" width="42" height="42">
<path d="M20.9947 0.327099C32.3934 0.327099 41.6338 9.56758 41.6338 20.9663C41.6338 32.365 32.3934 41.6055 20.9947 41.6055C9.59595 41.6055 0.355469 32.365 0.355469 20.9663C0.355469 9.56758 9.59595 0.327099 20.9947 0.327099Z" fill="white"/>
</mask>
<g mask="url(#mask0_81_472)">
<path d="M0.355469 41.6055L1.00044 39.8318L0.355469 37.9775L0.355469 36.1232L2.93537 31.7696L0.355469 27.416L0.355469 24.8361L2.93537 20.9663L0.355469 17.0964L0.355469 14.5165L2.93537 10.163L0.355469 5.80938L0.355469 0.327099L2.12915 0.972073L3.98345 0.327099H5.83775L10.1913 2.907L14.5449 0.327099H17.1248L20.9947 2.907L24.8645 0.327099H27.4444L31.798 2.907L36.1516 0.327099L41.6338 0.327099L40.9889 2.10078L41.6338 3.95508V5.80938L39.0539 10.163L41.6338 14.5165V17.0964L39.0539 20.9663L41.6338 24.8361V27.416L39.0539 31.7696L41.6338 36.1232V41.6055L39.8602 40.9605L38.0059 41.6055L36.1516 41.6055L31.798 39.0256L27.4444 41.6055H24.8645L20.9947 39.0256L17.1248 41.6055H14.5449L10.1913 39.0256L5.83775 41.6055H0.355469Z" fill="#EEEEEE"/>
<path d="M27.4444 41.6055V32.8983L36.1516 41.6055H27.4444ZM41.6338 36.1232L32.9267 27.416H41.6338V36.1232ZM0.355469 27.416H9.06262L0.355469 36.1232L0.355469 27.416ZM5.83775 41.6055L14.5449 32.8983V41.6055H5.83775ZM14.5449 0.327099V9.03426L5.83775 0.327099H14.5449ZM0.355469 5.80938L9.06262 14.5165H0.355469L0.355469 5.80938ZM41.6338 14.5165H32.9267L41.6338 5.80938V14.5165ZM36.1516 0.327099L27.4444 9.03426V0.327099H36.1516Z" fill="#0052B4"/>
<path d="M0.355469 41.6055L0.355469 37.9775L10.9169 27.416H14.5449L0.355469 41.6055ZM17.1248 41.6055V24.8361H0.355469L0.355469 17.0964H17.1248V0.327099H24.8645V17.0964H41.6338V24.8361H24.8645V41.6055H17.1248ZM38.0059 41.6055L27.4444 31.044V27.416L41.6338 41.6055H38.0059ZM14.5449 14.5165L0.355469 0.327099H3.98345L14.5449 10.8886V14.5165ZM27.4444 14.5165L41.6338 0.327099V3.95508L31.0724 14.5165H27.4444Z" fill="#D80027"/>
</g>
</svg>
