<svg width="42" height="42" viewBox="0 0 42 42" fill="none" xmlns="http://www.w3.org/2000/svg">
<path d="M20.997 40.6214C29.58 40.6214 36.8526 35.1833 39.5389 27.5176H2.45508C5.14136 35.1833 12.414 40.6214 20.997 40.6214Z" fill="#ED4C5C"/>
<path d="M20.997 1.31055C12.414 1.31055 5.14136 6.81416 2.45508 14.4144L39.5389 14.4144C36.8526 6.81416 29.58 1.31055 20.997 1.31055Z" fill="#699635"/>
<path d="M39.5395 27.5169C40.2602 25.4858 40.6533 23.2582 40.6533 20.965C40.6533 18.6718 40.2602 16.4442 39.5395 14.4131L2.45562 14.4131C1.73491 16.4442 1.3418 18.6718 1.3418 20.965C1.3418 23.2582 1.73491 25.4858 2.45562 27.5169H39.5395Z" fill="#FFCE31"/>
<path d="M20.9969 30.1393C26.0628 30.1393 30.1696 26.0326 30.1696 20.9666C30.1696 15.9007 26.0628 11.7939 20.9969 11.7939C15.931 11.7939 11.8242 15.9007 11.8242 20.9666C11.8242 26.0326 15.931 30.1393 20.9969 30.1393Z" fill="#428BC1"/>
<path d="M23.4887 21.8168L27.4854 18.9994H22.5715L20.999 14.4131L19.4921 18.9994H14.5781L18.5748 21.8168L17.0679 26.4031L20.999 23.5858L24.9957 26.4031L23.4887 21.8168ZM25.7819 19.5236L23.2922 21.2926L22.7025 19.5236H25.7819ZM19.1645 21.6202L19.8852 19.5236H22.1783L22.8991 21.6202L20.999 22.9306L19.1645 21.6202ZM20.999 16.1166L21.9818 18.9994H20.0817L20.999 16.1166ZM16.2161 19.5236H19.2955L18.7058 21.2926L16.2161 19.5236ZM18.0506 25.0272L18.9679 22.1444L20.5404 23.2582L18.0506 25.0272ZM23.9474 25.0272L21.4576 23.2582L23.0301 22.1444L23.9474 25.0272Z" fill="#FFCE31"/>
<path d="M20.7352 24.4372V27.5166H21.2593V24.4372L20.9972 24.2406L20.7352 24.4372ZM17.0006 21.4233L14.4453 22.144L14.5764 22.6681L17.5902 21.8164L17.0006 21.4233ZM19.0972 18.4094L19.2282 17.8852L17.1971 15.3955L16.804 15.7231L18.9661 18.4094H19.0972ZM23.0283 18.4094L25.1905 15.7231L24.7973 15.3955L22.7663 17.8852L22.8973 18.4094H23.0283ZM24.9939 21.4233L24.4042 21.8164L27.4181 22.6681L27.5492 22.144L24.9939 21.4233Z" fill="#FFCE31"/>
</svg>
