<svg width="70" height="87" viewBox="0 0 70 87" fill="none" xmlns="http://www.w3.org/2000/svg">
<path d="M69.782 52.9813C69.782 49.1971 66.7145 46.1296 62.9017 46.1296H62.6723C61.6116 42.5461 60.8089 36.8411 57.7701 30.8208C56.394 28.0974 53.6705 25.6319 50.4024 23.4818C48.9977 22.5644 47.2489 22.3351 45.6435 22.8224C38.5625 25.0586 26.5219 28.5847 20.4729 28.5847C19.0682 28.5847 17.5201 27.5813 16.5741 26.6066C12.6179 22.5071 10.2958 39.3639 7.40028 46.1296C7.22827 46.1296 7.05625 46.1009 6.88424 46.1009C3.10006 46.1009 0.00390625 49.1684 0.00390625 52.9526C0.00390625 56.7368 3.07139 59.8043 6.88424 59.8043H6.99892C7.51494 74.769 19.8136 86.7236 34.893 86.7236C49.9724 86.7236 62.271 74.769 62.787 59.8043H64.6217V59.5749C67.6032 58.8582 69.782 56.1921 69.782 52.9813Z" fill="#FCD2B6"/>
<path d="M34.9201 64.6208C32.8273 64.6208 30.9352 63.5888 29.8459 61.84C29.4732 61.2666 29.6452 60.5213 30.2185 60.1486C30.7919 59.7759 31.5373 59.9479 31.91 60.5213C32.5407 61.5533 33.6874 62.1553 34.9201 62.1553C36.1528 62.1553 37.2996 61.5533 37.9303 60.5213C38.3029 59.9479 39.0483 59.7759 39.6217 60.1486C40.195 60.5213 40.367 61.2666 39.9943 61.84C38.905 63.5888 37.0129 64.6208 34.9201 64.6208Z" fill="#E4AA82"/>
<path d="M32.4268 83.8595C26.0338 83.8595 20.1282 81.9101 15.1973 78.6132C20.2428 83.6588 27.2092 86.7836 34.9209 86.7836C50.3443 86.7836 62.8436 74.2843 62.8436 58.8896L62.9296 57.4849C60.7508 72.3923 47.9362 83.8595 32.4268 83.8595Z" fill="#EBBFA1"/>
<path d="M35.8958 0.205007C35.4658 0.176339 35.0357 0.14767 34.5771 0.119002C34.4911 0.119002 34.3764 0.090332 34.2904 0.090332H34.061C33.201 0.090332 32.427 0.147668 31.7103 0.233672C16.4875 1.66708 2.38281 21.0754 2.38281 32.6859C2.38281 34.1767 4.79093 46.8193 4.79093 46.8193C4.99161 47.88 6.39634 48.138 6.91236 47.192C10.0659 41.3724 12.4166 22.2794 16.5735 26.6083C17.5196 27.583 19.0676 28.5864 20.4724 28.5864C26.55 28.5864 38.5906 25.0889 45.6429 22.8241C47.2483 22.3081 48.9971 22.5374 50.4018 23.4835C53.67 25.6336 56.3935 28.099 57.7695 30.8225C61.095 37.4448 61.7544 43.6658 63.0158 47.1346C63.5605 48.6827 65.8826 48.2527 65.8826 46.6186L66.0259 33.4886V32.6859C66.0546 15.8291 51.4339 1.17972 35.8958 0.205007Z" fill="#EE97C9"/>
<path d="M56.333 48.9971L56.247 48.6531C55.4156 46.7897 53.7242 45.6143 51.8321 45.6143C49.94 45.6143 48.2486 46.7897 47.4172 48.6531C47.3599 48.7677 47.3312 48.8824 47.3312 48.9971C47.0732 49.5418 47.1879 50.2298 47.6753 50.6312C47.9333 50.8605 48.2773 50.9752 48.5926 50.9752C48.9653 50.9752 49.3667 50.8032 49.6533 50.5165C50.198 49.8858 51.0294 49.5131 51.8608 49.5131C52.7208 49.5131 53.5235 49.8858 54.0682 50.5165C54.5843 51.0899 55.473 51.1472 56.0463 50.6312C56.4763 50.2011 56.591 49.5418 56.333 48.9971Z" fill="#2C3C47"/>
<path d="M56.2494 42.8617C55.848 42.8617 55.4753 42.6323 55.332 42.231C54.9593 41.285 54.1853 40.5396 53.2392 40.1956C52.2932 39.8515 51.2325 39.9375 50.3438 40.3962C49.8564 40.6542 49.2544 40.4822 48.9964 39.9949C48.7383 39.5075 48.9104 38.9055 49.3977 38.6475C50.7738 37.9021 52.4365 37.7874 53.9273 38.3035C55.418 38.8482 56.6221 39.9949 57.1954 41.457C57.3961 41.973 57.1381 42.5463 56.6221 42.747C56.5074 42.833 56.3927 42.8617 56.2494 42.8617Z" fill="#E4AA82"/>
<path d="M17.1724 55.2464C16.0257 55.2464 14.9076 54.9883 13.8469 54.501C13.3882 54.2716 13.1875 53.6983 13.3882 53.2396C13.6175 52.7809 14.1909 52.5802 14.6496 52.7809C16.2837 53.5549 18.2044 53.5263 19.8672 52.6949C20.3259 52.4656 20.8992 52.6662 21.1286 53.1249C21.3579 53.5836 21.1573 54.157 20.6986 54.3863C19.5805 54.9597 18.3764 55.2464 17.1724 55.2464Z" fill="#EBBFA1"/>
<path d="M21.79 48.9971L21.704 48.6531C20.8727 46.7897 19.1812 45.6143 17.2892 45.6143C15.3971 45.6143 13.7056 46.7897 12.8743 48.6531C12.8169 48.7677 12.7883 48.8824 12.7883 48.9971C12.5303 49.5418 12.6449 50.2298 13.1323 50.6312C13.3903 50.8605 13.7343 50.9752 14.0497 50.9752C14.4223 50.9752 14.8237 50.8032 15.1104 50.5165C15.6551 49.8858 16.4864 49.5131 17.3178 49.5131C18.1779 49.5131 18.9806 49.8858 19.5253 50.5165C20.0413 51.0899 20.93 51.1472 21.5034 50.6312C21.9334 50.2011 22.0481 49.5418 21.79 48.9971Z" fill="#2C3C47"/>
<path d="M12.8149 42.8608C12.7003 42.8608 12.5569 42.8322 12.4423 42.8035C11.9262 42.6028 11.6682 42.0294 11.8689 41.5134C12.4423 40.0514 13.6463 38.876 15.1371 38.3599C16.6278 37.8152 18.2905 37.9299 19.6666 38.7039C20.154 38.962 20.326 39.564 20.068 40.0514C19.81 40.5387 19.2079 40.7107 18.7206 40.4527C17.8319 39.9653 16.7711 39.908 15.8251 40.252C14.879 40.596 14.105 41.3414 13.7323 42.2875C13.589 42.6315 13.2163 42.8608 12.8149 42.8608ZM35.8927 72.8476H31.9939C31.5639 72.8476 31.2198 72.5036 31.2198 72.0736C31.2198 71.6436 31.5639 71.2996 31.9939 71.2996C32.4239 71.2996 32.7679 70.9555 32.7679 70.5255C32.7679 70.0955 32.4239 69.7515 31.9939 69.7515C30.7038 69.7515 29.6718 70.7835 29.6718 72.0736C29.6718 72.5323 29.8151 72.9623 30.0445 73.3063C29.2991 73.8223 28.7831 74.6537 28.7831 75.6284C28.7831 77.1765 30.0445 78.4379 31.5925 78.4379H34.4307C34.8607 78.4379 35.2047 78.0939 35.2047 77.6639C35.2047 77.2338 34.8607 76.8898 34.4307 76.8898H31.5925C30.9045 76.8898 30.3311 76.3165 30.3311 75.6284C30.3311 74.9404 30.9045 74.367 31.5925 74.367H35.8927C36.3228 74.367 36.6668 74.023 36.6668 73.593C36.6668 73.163 36.3228 72.8476 35.8927 72.8476Z" fill="#E4AA82"/>
</svg>
