<svg width="81" height="74" viewBox="0 0 81 74" fill="none" xmlns="http://www.w3.org/2000/svg">
<path d="M34.6894 50.2864C32.9618 55.2867 28.2084 58.8827 22.6134 58.8827C20.7227 58.8827 18.9302 58.4722 17.3183 57.7358C18.6252 58.1098 20.0057 58.3112 21.4366 58.3112C27.2028 58.3112 32.1954 55.0549 34.6894 50.2864Z" fill="#FCD2B6" stroke="black" stroke-width="0.808291"/>
<path d="M66.9387 43.6228L66.9388 43.623L66.9489 43.6179C66.9523 43.6162 66.9589 43.6143 66.9697 43.6182C66.9801 43.6219 66.9906 43.63 66.9977 43.645L66.9976 43.645L67.0019 43.6536C67.0036 43.6571 67.0055 43.6636 67.0016 43.6744C66.9982 43.684 66.991 43.6938 66.978 43.7008C66.5246 43.8957 66.0544 44.0021 65.5777 44.0021C65.0749 44.0021 64.5681 43.8826 64.0938 43.6521C64.0863 43.648 64.0777 43.6395 64.0729 43.6256C64.0681 43.6116 64.0707 43.6031 64.0725 43.5995C64.0763 43.5918 64.085 43.5827 64.0994 43.5778C64.1133 43.573 64.1219 43.5756 64.1254 43.5773C65.0191 44.0242 66.0412 44.0406 66.9387 43.6228Z" fill="#EBBFA1" stroke="black" stroke-width="0.808291"/>
<path d="M39.8875 45.7616H39.4276L39.8875 38.8221C39.8875 31.071 33.1915 27.0669 25.4404 27.0669C17.6892 27.0669 11.8184 31.071 11.8184 38.8221L12.6841 51.7678C12.6841 59.0455 18.582 64.9299 25.8597 64.9299C32.9751 64.9299 38.7783 59.289 39.0218 52.2277H39.8875C41.6732 52.2277 43.1341 50.7803 43.1341 48.9947C43.1206 47.2091 41.6732 45.7616 39.8875 45.7616Z" fill="#FDDFCE"/>
<path d="M25.8478 54.5282C24.8467 54.5282 23.9404 54.0277 23.4128 53.2026C23.237 52.9185 23.3182 52.5397 23.6022 52.3503C23.8863 52.1745 24.2651 52.2557 24.4544 52.5397C24.7521 53.0132 25.2661 53.2973 25.8478 53.2973C26.4294 53.2973 26.9435 53.0132 27.2411 52.5397C27.4169 52.2557 27.7957 52.1745 28.0933 52.3503C28.3774 52.5262 28.4585 52.905 28.2827 53.2026C27.7551 54.0413 26.8488 54.5282 25.8478 54.5282Z" fill="#EBBFA1"/>
<path d="M17.7851 51.2279C17.244 51.2279 16.7165 51.1062 16.216 50.8762C15.9995 50.768 15.9048 50.4974 15.9995 50.281C16.1078 50.0646 16.3648 49.9699 16.5947 50.0646C17.3658 50.4298 18.2721 50.4163 19.0567 50.024C19.2731 49.9158 19.5437 50.0104 19.6519 50.2269C19.7601 50.4433 19.6654 50.7139 19.449 50.8221C18.9214 51.1062 18.3533 51.2279 17.7851 51.2279Z" fill="#EBBFA1"/>
<path d="M19.9631 48.2784L19.9226 48.116C19.5303 47.2367 18.7321 46.6821 17.8393 46.6821C16.9465 46.6821 16.1484 47.2367 15.7561 48.116C15.7291 48.1701 15.7156 48.2242 15.7156 48.2784C15.5938 48.5354 15.6479 48.86 15.8779 49.0494C15.9996 49.1576 16.162 49.2117 16.3108 49.2117C16.4866 49.2117 16.676 49.1306 16.8113 48.9953C17.0683 48.6977 17.4606 48.5218 17.8529 48.5218C18.2587 48.5218 18.6375 48.6977 18.8945 48.9953C19.138 49.2658 19.5573 49.2929 19.8279 49.0494C20.0308 48.86 20.0849 48.5354 19.9631 48.2784Z" fill="#2C3C47"/>
<path d="M15.1493 45.3704C15.0952 45.3704 15.041 45.3568 14.9869 45.3433C14.757 45.2486 14.6488 44.9916 14.7299 44.7616C15.0005 44.0717 15.5551 43.5307 16.2585 43.2872C16.9619 43.0301 17.733 43.0843 18.3823 43.436C18.5987 43.5577 18.6799 43.8283 18.5582 44.0447C18.4364 44.2611 18.1659 44.3423 17.9494 44.2205C17.5301 43.9906 17.016 43.95 16.5561 44.1259C16.0962 44.2882 15.7309 44.6399 15.5551 45.0998C15.501 45.2621 15.3251 45.3704 15.1493 45.3704ZM34.1822 51.2277C33.6141 51.2277 33.0459 51.0924 32.5183 50.8354C32.3019 50.7272 32.2072 50.4566 32.3154 50.2402C32.4237 50.0238 32.6942 49.9291 32.9106 50.0373C33.6952 50.4296 34.588 50.4431 35.3726 50.0779C35.589 49.9697 35.8596 50.0643 35.9678 50.2943C36.076 50.5107 35.9813 50.7813 35.7514 50.8895C35.2509 51.1195 34.7233 51.2277 34.1822 51.2277Z" fill="#EBBFA1"/>
<path d="M36.2639 48.2784L36.2233 48.116C35.831 47.2367 35.0329 46.6821 34.1401 46.6821C33.2473 46.6821 32.4492 47.2367 32.0569 48.116C32.0299 48.1701 32.0163 48.2242 32.0163 48.2784C31.8946 48.5354 31.9487 48.86 32.1787 49.0494C32.4492 49.2929 32.8686 49.2658 33.1121 48.9953C33.3691 48.6977 33.7614 48.5218 34.1537 48.5218C34.5595 48.5218 34.9382 48.6977 35.1953 48.9953C35.3305 49.1441 35.5064 49.2117 35.6958 49.2117C35.8446 49.2117 36.0069 49.1576 36.1286 49.0494C36.3316 48.86 36.3857 48.5354 36.2639 48.2784Z" fill="#2C3C47"/>
<path d="M35.6413 45.3692C35.4654 45.3692 35.2896 45.261 35.2219 45.0852C35.0461 44.6388 34.6808 44.2871 34.2209 44.1112C33.761 43.9489 33.2605 43.9759 32.8276 44.2059C32.6112 44.3276 32.3406 44.2465 32.2189 44.03C32.0971 43.8136 32.1783 43.5431 32.3947 43.4213C33.044 43.0696 33.8151 43.0155 34.5185 43.2725C35.2219 43.5295 35.7766 44.0706 36.0471 44.747C36.1418 44.977 36.02 45.234 35.7901 45.3287C35.7495 45.3557 35.6954 45.3692 35.6413 45.3692Z" fill="#EBBFA1"/>
<path d="M28.2967 58.5866C28.4049 58.4107 28.4725 58.2213 28.4725 58.0049C28.4725 57.3962 27.9856 56.9092 27.3768 56.9092C27.1739 56.9092 27.0116 57.0715 27.0116 57.2744C27.0116 57.4773 27.1739 57.6397 27.3768 57.6397C27.5797 57.6397 27.7421 57.802 27.7421 58.0049C27.7421 58.2078 27.5797 58.3701 27.3768 58.3701H25.5371C25.3342 58.3701 25.1719 58.5325 25.1719 58.7354C25.1719 58.9383 25.3342 59.1006 25.5371 59.1006H27.5662C27.8909 59.1006 28.1614 59.3711 28.1614 59.6958C28.1614 60.0205 27.8909 60.291 27.5662 60.291H25.97C25.7671 60.291 25.6047 60.4533 25.6047 60.6562C25.6047 60.8592 25.7671 61.0215 25.97 61.0215H27.5662C28.2967 61.0215 28.8919 60.4263 28.8919 59.6958C28.8919 59.2359 28.6619 58.8301 28.2967 58.5866Z" fill="#F48F9C"/>
<path d="M77.238 48.995C77.238 47.2094 75.7906 45.762 73.9914 45.762H73.8832C73.3827 44.0711 73.0039 41.3792 71.57 38.5384C70.9207 37.2533 69.6356 36.09 68.0935 35.0754C67.4307 34.6426 66.6055 34.5343 65.848 34.7643C62.5067 35.8194 56.8253 37.4833 53.971 37.4833C53.3082 37.4833 52.5777 37.0098 52.1313 36.5499C50.2645 34.6155 49.1688 42.5696 47.8026 45.762C47.7214 45.762 47.6402 45.7485 47.5591 45.7485C45.7735 45.7485 44.3125 47.1959 44.3125 48.9815C44.3125 50.7671 45.7599 52.2145 47.5591 52.2145H47.6132C47.8567 59.2758 53.6599 64.9167 60.7752 64.9167C67.8906 64.9167 73.6938 59.2758 73.9373 52.2145H74.8031V52.1063C76.2099 51.7681 77.238 50.5101 77.238 48.995Z" fill="#FCD2B6"/>
<path d="M60.7902 54.4871C59.8027 54.4871 58.9099 54.0001 58.3959 53.175C58.22 52.9044 58.3012 52.5527 58.5717 52.3768C58.8423 52.201 59.194 52.2821 59.3699 52.5527C59.6675 53.0397 60.2085 53.3238 60.7902 53.3238C61.3719 53.3238 61.913 53.0397 62.2106 52.5527C62.3864 52.2821 62.7382 52.201 63.0087 52.3768C63.2792 52.5527 63.3604 52.9044 63.1846 53.175C62.6705 54.0001 61.7777 54.4871 60.7902 54.4871Z" fill="#E4AA82"/>
<path d="M59.6123 63.5652C56.5957 63.5652 53.8091 62.6454 51.4824 61.0898C53.8632 63.4706 57.1504 64.945 60.7892 64.945C68.0669 64.945 73.9648 59.0471 73.9648 51.783L74.0054 51.1201C72.9773 58.1543 66.9306 63.5652 59.6123 63.5652Z" fill="#EBBFA1"/>
<path d="M61.249 24.0917C61.0461 24.0782 60.8432 24.0647 60.6267 24.0511C60.5861 24.0511 60.532 24.0376 60.4914 24.0376H60.3832C59.9774 24.0376 59.6122 24.0647 59.274 24.1052C52.091 24.7816 45.4355 33.9396 45.4355 39.4182C45.4355 40.1216 46.5718 46.0871 46.5718 46.0871C46.6665 46.5876 47.3294 46.7094 47.5729 46.263C49.0609 43.5169 50.1701 34.5077 52.1316 36.5504C52.578 37.0103 53.3084 37.4838 53.9713 37.4838C56.8391 37.4838 62.5205 35.8334 65.8483 34.7648C66.6058 34.5213 67.431 34.6295 68.0938 35.0759C69.6359 36.0904 70.921 37.2538 71.5703 38.5389C73.1395 41.6637 73.4506 44.5991 74.0458 46.2359C74.3028 46.9664 75.3986 46.7635 75.3986 45.9924L75.4662 39.7969V39.4182C75.4797 31.4641 68.5808 24.5516 61.249 24.0917Z" fill="#007E85"/>
<path d="M70.8928 47.1158L70.8522 46.9534C70.4599 46.0742 69.6618 45.5195 68.769 45.5195C67.8762 45.5195 67.0781 46.0742 66.6858 46.9534C66.6588 47.0075 66.6452 47.0616 66.6452 47.1158C66.5235 47.3728 66.5776 47.6974 66.8076 47.8868C66.9293 47.995 67.0916 48.0491 67.2404 48.0491C67.4163 48.0491 67.6057 47.968 67.741 47.8327C67.998 47.5351 68.3903 47.3592 68.7826 47.3592C69.1884 47.3592 69.5671 47.5351 69.8242 47.8327C70.0677 48.1033 70.487 48.1303 70.7575 47.8868C70.9605 47.6839 71.0146 47.3728 70.8928 47.1158Z" fill="#2C3C47"/>
<path d="M70.8538 44.2202C70.6644 44.2202 70.4885 44.112 70.4209 43.9226C70.245 43.4762 69.8798 43.1245 69.4334 42.9621C68.987 42.7998 68.4865 42.8404 68.0671 43.0568C67.8372 43.1786 67.5531 43.0974 67.4313 42.8674C67.3096 42.6375 67.3908 42.3534 67.6207 42.2317C68.27 41.88 69.0546 41.8258 69.758 42.0693C70.4615 42.3264 71.0296 42.8674 71.3002 43.5573C71.3948 43.8008 71.2731 44.0714 71.0296 44.1661C70.9755 44.2067 70.9214 44.2202 70.8538 44.2202Z" fill="#E4AA82"/>
<path d="M52.416 50.0633C51.8749 50.0633 51.3473 49.9416 50.8468 49.7116C50.6304 49.6034 50.5357 49.3329 50.6304 49.1164C50.7386 48.9 51.0092 48.8053 51.2256 48.9C51.9967 49.2652 52.903 49.2517 53.6876 48.8594C53.904 48.7512 54.1746 48.8459 54.2828 49.0623C54.391 49.2788 54.2963 49.5493 54.0799 49.6575C53.5523 49.9281 52.9841 50.0633 52.416 50.0633Z" fill="#EBBFA1"/>
<path d="M54.592 47.1158L54.5515 46.9534C54.1592 46.0742 53.3611 45.5195 52.4683 45.5195C51.5755 45.5195 50.7773 46.0742 50.385 46.9534C50.358 47.0075 50.3445 47.0616 50.3445 47.1158C50.2227 47.3728 50.2768 47.6974 50.5068 47.8868C50.6285 47.995 50.7909 48.0491 50.9397 48.0491C51.1155 48.0491 51.3049 47.968 51.4402 47.8327C51.6972 47.5351 52.0895 47.3592 52.4818 47.3592C52.8876 47.3592 53.2664 47.5351 53.5234 47.8327C53.7669 48.1033 54.1862 48.1303 54.4568 47.8868C54.6597 47.6839 54.7138 47.3728 54.592 47.1158Z" fill="#2C3C47"/>
<path d="M50.3575 44.22C50.3033 44.22 50.2357 44.2065 50.1816 44.193C49.9381 44.0983 49.8164 43.8277 49.911 43.5843C50.1816 42.8944 50.7497 42.3397 51.4532 42.0963C52.1566 41.8392 52.9412 41.8933 53.5905 42.2586C53.8204 42.3803 53.9016 42.6644 53.7799 42.8944C53.6581 43.1243 53.374 43.2055 53.1441 43.0837C52.7247 42.8538 52.2242 42.8267 51.7778 42.9891C51.3314 43.1514 50.9662 43.5031 50.7903 43.9495C50.7227 44.1118 50.5468 44.22 50.3575 44.22ZM61.2469 58.3696H59.4072C59.2043 58.3696 59.042 58.2073 59.042 58.0044C59.042 57.8015 59.2043 57.6391 59.4072 57.6391C59.6101 57.6391 59.7725 57.4768 59.7725 57.2739C59.7725 57.071 59.6101 56.9087 59.4072 56.9087C58.7985 56.9087 58.3115 57.3956 58.3115 58.0044C58.3115 58.2208 58.3792 58.4237 58.4874 58.5861C58.1357 58.8295 57.8922 59.2218 57.8922 59.6818C57.8922 60.4122 58.4874 61.0074 59.2178 61.0074H60.557C60.76 61.0074 60.9223 60.8451 60.9223 60.6422C60.9223 60.4393 60.76 60.277 60.557 60.277H59.2178C58.8932 60.277 58.6226 60.0064 58.6226 59.6818C58.6226 59.3571 58.8932 59.0866 59.2178 59.0866H61.2469C61.4499 59.0866 61.6122 58.9242 61.6122 58.7213C61.6122 58.5184 61.4499 58.3696 61.2469 58.3696Z" fill="#E4AA82"/>
<path d="M41.4721 38.336C41.4721 29.7056 34.0185 23.1719 25.4016 23.1719C16.7847 23.1719 10.2646 29.692 10.2375 38.2819V38.3766L10.5351 42.7459L10.5892 52.4856C10.454 56.1244 9.46646 60.2232 8.993 62.0088C8.87126 62.4823 9.22297 62.9287 9.70995 62.9287H12.1584C12.7265 62.9287 13.3759 60.6831 13.3759 60.6831C13.7005 61.3054 13.8493 61.9006 13.9305 62.3199C13.9981 62.6716 14.2957 62.9422 14.661 62.9422H18.895C18.7868 62.8746 18.665 62.7934 18.5568 62.7258C18.5162 62.6987 18.4892 62.6716 18.4486 62.6446C18.381 62.5905 18.2998 62.5499 18.2322 62.4958C18.1916 62.4687 18.151 62.4282 18.1104 62.4011C18.0428 62.3605 17.9751 62.3064 17.921 62.2523C17.8805 62.2117 17.8263 62.1847 17.7858 62.1441C17.7317 62.1035 17.664 62.0494 17.6099 62.0088C17.5693 61.9682 17.5152 61.9276 17.4746 61.9006C17.4205 61.86 17.3664 61.8059 17.3123 61.7653C17.2717 61.7247 17.2176 61.6842 17.177 61.6436C17.1229 61.5895 17.0688 61.5489 17.0147 61.4948C16.9741 61.4542 16.92 61.4136 16.8794 61.373C16.8253 61.3189 16.7712 61.2783 16.7306 61.2242C16.69 61.1836 16.6359 61.1431 16.5954 61.0889L16.4466 60.9402C16.406 60.8996 16.3654 60.8455 16.3113 60.8049C16.2572 60.7508 16.2166 60.6967 16.1625 60.6561C16.1219 60.6155 16.0813 60.5614 16.0407 60.5208C16.0002 60.4667 15.946 60.4126 15.9055 60.3585C15.8649 60.3044 15.8243 60.2638 15.7837 60.2097C15.7431 60.1556 15.689 60.1015 15.6484 60.0473C15.6079 59.9932 15.5673 59.9527 15.5267 59.8985L15.405 59.7362C15.3644 59.6821 15.3238 59.6415 15.2832 59.5874L15.1615 59.4251C15.1209 59.371 15.0803 59.3169 15.0532 59.2763C15.0127 59.2222 14.9721 59.1545 14.9315 59.1004C14.8909 59.0463 14.8639 58.9922 14.8233 58.9381C14.7692 58.8569 14.7151 58.7758 14.6745 58.6946C14.6204 58.6134 14.5663 58.5188 14.5121 58.4376C14.4851 58.3835 14.4445 58.3294 14.4175 58.2753C14.3769 58.2076 14.3498 58.1535 14.3092 58.0859C14.2822 58.0318 14.2551 57.9777 14.2145 57.9236C14.1875 57.8559 14.1469 57.8018 14.1199 57.7342L14.0387 57.5718C14.0116 57.5042 13.9711 57.4366 13.944 57.3825L13.8628 57.2201C13.8358 57.1525 13.8087 57.0849 13.7681 57.0172C13.7411 56.9631 13.714 56.909 13.7005 56.8549L13.6193 56.652C13.5923 56.5979 13.5788 56.5438 13.5517 56.4897L13.4705 56.2868C13.4435 56.2326 13.43 56.1785 13.4164 56.1109C13.3894 56.0433 13.3623 55.9756 13.3488 55.8945C13.3353 55.8404 13.3082 55.7862 13.2947 55.7186C13.2676 55.651 13.2541 55.5698 13.2271 55.5022C13.2135 55.4481 13.2 55.3939 13.1729 55.3263C13.1459 55.2587 13.1324 55.1775 13.1188 55.1099C13.1053 55.0558 13.0918 55.0017 13.0783 54.934C13.0647 54.8529 13.0377 54.7852 13.0241 54.7041L12.9836 54.5417C12.97 54.4606 12.9565 54.3794 12.9295 54.3118C12.9159 54.2577 12.9159 54.2035 12.9024 54.1494L12.8618 53.9059C12.8483 53.8518 12.8483 53.8113 12.8348 53.7571C12.8212 53.6625 12.8077 53.5813 12.7942 53.4866C12.7942 53.4595 12.7942 53.446 12.7807 53.419C12.7536 53.1755 12.7265 52.932 12.713 52.675V41.055C12.713 40.2839 12.8077 39.594 12.97 38.9583C13.6464 39.1071 15.2967 42.2048 15.7026 42.2048H32.9364C33.5451 42.2048 33.6127 39.7293 33.6127 39.7293C34.1268 40.7168 34.3567 41.8396 34.4514 42.0425C34.492 42.1372 34.5867 42.2048 34.6949 42.2048H39.6594L39.4159 45.7896C39.5647 45.7625 39.7271 45.7625 39.8759 45.7625H40.1329C40.1735 45.7625 40.2141 45.7625 40.2546 45.776C40.2817 45.776 40.3088 45.7896 40.3358 45.7896C40.3764 45.7896 40.4034 45.8031 40.444 45.8031C40.4711 45.8031 40.4981 45.8166 40.5252 45.8166C40.5522 45.8166 40.5928 45.8301 40.6199 45.8437C40.6469 45.8437 40.674 45.8572 40.701 45.8707C40.7281 45.8842 40.7687 45.8842 40.7957 45.8978C40.8228 45.9113 40.8498 45.9113 40.8769 45.9248C40.904 45.9384 40.931 45.9519 40.9716 45.9519C40.9986 45.9654 41.0257 45.9654 41.0528 45.9789C41.0798 45.9925 41.1204 46.006 41.1474 46.0195C41.1745 46.033 41.188 46.033 41.2151 46.0466L41.3774 46.1277C41.4856 41.7719 41.4721 38.336 41.4721 38.336ZM40.7957 52.1068C40.7822 52.1068 40.7687 52.1068 40.7687 52.1203C40.6875 52.1474 40.5928 52.1609 40.5117 52.1744C40.4981 52.1744 40.4846 52.1744 40.4711 52.188C40.3899 52.2015 40.2952 52.215 40.2005 52.2286H40.1735C40.0788 52.2421 39.9841 52.2421 39.8894 52.2421C39.5918 52.2421 39.2942 52.2015 39.0237 52.1203C38.9019 56.6926 36.4535 60.6831 32.8146 62.9557H39.3213C39.6594 62.9557 39.9706 62.7258 40.0382 62.3876V62.374C40.0653 62.3199 40.0788 62.2658 40.1058 62.1982C40.6605 59.9391 40.9851 56.0027 41.188 51.9715C41.1474 51.9851 41.0933 52.0121 41.0528 52.0256C40.9716 52.0527 40.8769 52.0798 40.7957 52.1068Z" fill="#007E85"/>
<path d="M59.5164 11.5248C55.35 7.35842 48.6134 7.34489 44.447 11.4978L44.4334 11.5113C43.8247 12.12 42.8778 12.12 42.2691 11.5113L42.2555 11.4978C38.1297 7.35842 31.4472 7.31783 27.2673 11.3896C23.6419 14.9202 23.0332 20.7234 25.8334 24.9439C26.6721 26.2155 27.7272 27.2165 28.8905 27.9605L41.9173 38.4983C42.7966 39.2017 44.0547 39.2017 44.9204 38.4983L57.8525 27.947C58.7318 27.3653 59.557 26.6348 60.2604 25.7556C63.6422 21.5756 63.304 15.326 59.5164 11.5248Z" fill="#FF0000"/>
</svg>
