<svg width="54" height="54" viewBox="0 0 54 54" fill="none" xmlns="http://www.w3.org/2000/svg">
<path d="M29.1588 23.2573C29.1588 30.4973 23.7933 36.3709 17.1892 36.3709C10.5826 36.3709 5.21875 30.4932 5.21875 23.2573V16.253C5.21875 9.013 10.5826 3.14111 17.1892 3.14111C23.7933 3.14111 29.1588 9.01051 29.1588 16.253V23.2573Z" fill="#593212"/>
<path d="M1.02952 43.1505C1.23374 42.9263 33.381 43.1679 33.381 43.1679V53.5112H0.962271C0.962271 53.5112 0.826121 43.373 1.03118 43.1505" fill="#007E85"/>
<path d="M21.1621 43.168C21.1621 43.168 53.0495 43.4619 53.2935 43.6511C53.5426 43.8412 53.2155 53.5162 53.2155 53.5162H21.1621V43.168Z" fill="#007E85"/>
<path d="M44.1148 43.6999H53.3132L52.9546 41.1744C52.395 37.2062 49.9028 34.1652 47.3948 34.3885C44.8877 34.6135 43.3103 38.0065 43.8649 41.9789L44.1131 43.6999" fill="#007E85"/>
<path d="M44.1129 43.6999H53.0747C53.1477 43.6476 53.2291 43.6027 53.2955 43.5587L52.9618 41.1744C52.4006 37.2062 49.9067 34.1652 47.4004 34.3885C44.8932 34.6135 43.3192 38.0065 43.8754 41.9789L44.1129 43.6999Z" fill="#007E85"/>
<path d="M47.4438 43.6988V39.7729C47.4438 33.8055 42.0285 28.9722 35.3496 28.9722C28.6667 28.9722 23.248 33.8072 23.248 39.7729V43.6988H47.4396" fill="#007E85"/>
<path d="M9.04942 43.7578L9.27025 41.8036C9.76836 37.3903 8.38029 33.6171 6.172 33.3639C3.96703 33.1207 1.77452 36.4979 1.2789 40.9103L0.960938 43.7545H9.04942" fill="#007E85"/>
<path d="M9.04766 43.7578L9.26849 41.8036C9.7666 37.3903 8.37854 33.6171 6.17024 33.3639C3.96527 33.1207 1.77276 36.4979 1.27714 40.9103L0.982422 43.5586C1.05548 43.615 1.13767 43.6831 1.21902 43.7528L9.04766 43.7545" fill="#007E85"/>
<path d="M27.5943 43.7583V40.2657C27.5943 35.0247 22.8332 30.77 16.9588 30.77C11.0811 30.77 6.3125 35.0214 6.3125 40.2657V43.7583H27.5943Z" fill="#007E85"/>
<path d="M11.1717 34.2086H22.737C22.8308 34.2086 22.2165 29.279 22.2165 28.6049C22.2165 28.5559 11.5943 28.5186 11.5943 28.5186C11.5943 28.5186 11.0771 34.2086 11.1717 34.2086Z" fill="#007E85"/>
<path d="M23.093 28.4814H11.5708C11.4563 29.75 10.7954 33.4443 11.1508 33.6842C11.472 33.9017 15.5956 34.2404 17.3307 34.2404C19.0682 34.2404 23.1918 33.9017 23.5122 33.6842C23.8684 33.4443 23.2067 29.75 23.093 28.4814Z" fill="#EE97C9"/>
<path d="M42.8452 28.9717H31.323C31.2093 30.241 30.5468 33.9345 30.903 34.1744C31.2251 34.3928 35.3478 34.7307 37.0828 34.7307C38.8179 34.7307 42.9439 34.3928 43.2636 34.1744C43.6205 33.9337 42.9589 30.241 42.8452 28.9717Z" fill="#EE97C9"/>
<path d="M24.198 21.2854C23.9389 26.5994 29.6224 31.1829 36.9056 31.5398C44.183 31.8985 50.2882 27.8887 50.5488 22.5738C50.8095 17.2681 45.5511 3.8947 38.2729 3.54104C30.9889 3.18323 24.4553 15.9847 24.198 21.2854Z" fill="#FBBF67"/>
<path d="M53.1294 9.87356C52.3897 7.71591 51.2565 6.78943 49.6875 5.79404C49.9664 5.54166 50.2628 5.21042 50.6605 4.72891C50.824 4.53133 51.0889 3.90703 50.6148 3.92031C47.0459 4.0382 44.1975 0.493312 39.409 0.656858C36.2892 0.768103 30.1209 2.21345 29.695 2.52809C27.1613 4.37276 25.5947 7.4461 24.7313 10.6531C24.5221 11.431 25.6254 10.903 25.8371 10.7228C25.9168 10.6531 26.0082 10.5958 26.0903 10.5327C26.038 12.1757 25.6952 13.7796 25.755 15.4341C25.7823 16.3208 27.3547 14.9053 27.495 14.5467C27.8927 13.5438 28.3252 12.6356 28.8374 11.7058C28.9238 11.5414 28.9445 11.4459 28.9321 11.3613C29.0083 11.2984 29.0726 11.2225 29.1222 11.1371C29.9366 9.39345 31.1331 7.85555 32.6231 6.63751C34.76 6.96377 36.2576 9.1621 39.394 8.41908C45.4652 6.97622 47.402 11.04 48.5676 16.8322C48.7253 17.6424 50.0603 16.5142 50.2196 16.1415C51.171 14.0054 50.9643 12.4455 50.5849 10.5161C50.9137 10.7403 51.235 10.9819 51.5239 11.2799C52.0195 11.6468 53.347 10.5103 53.1294 9.87356Z" fill="#EE97C9"/>
<path d="M35.0392 17.419C34.9745 18.7166 34.0521 19.7261 32.9804 19.678C31.9086 19.6232 31.0959 18.5265 31.1598 17.2314C31.2229 15.9338 32.1394 14.9177 33.2145 14.9692C34.2838 15.0215 35.1023 16.1173 35.0392 17.419ZM44.2559 17.869C44.1912 19.1691 43.2697 20.1794 42.2012 20.1271C41.1278 20.0748 40.3092 18.9806 40.3723 17.6789C40.4371 16.3813 41.3569 15.3668 42.4312 15.4166C43.498 15.4698 44.319 16.5664 44.2559 17.869Z" fill="#25333A"/>
<path opacity="0.6" d="M35.8184 21.8984C35.8184 21.1579 36.4526 21.1753 37.3069 21.1753C38.1678 21.1753 38.9266 21.1579 38.9266 21.8984C38.9266 22.6423 38.2292 23.2383 37.3716 23.2383C36.5149 23.2392 35.8184 22.6423 35.8184 21.8984Z" fill="#C27929"/>
<path d="M42.3685 25.5127C42.3685 26.8382 41.8419 28.1094 40.9047 29.0466C39.9674 29.9839 38.6962 30.5104 37.3708 30.5104C36.0453 30.5104 34.7741 29.9839 33.8368 29.0466C32.8996 28.1094 32.373 26.8382 32.373 25.5127" fill="#633F1A"/>
<path d="M41.513 26.0156C41.513 27.1164 39.621 28.0114 37.289 28.0114C34.9587 28.0114 33.0684 27.1164 33.0684 26.0156" fill="white"/>
<path d="M5.59961 20.5261C5.59961 25.1984 10.7833 28.9841 17.189 28.9841C23.5914 28.9841 28.7825 25.1984 28.7825 20.5261C28.7825 15.8597 23.5914 8.94092 17.189 8.94092C10.7833 8.94092 5.59961 15.8597 5.59961 20.5261Z" fill="#FBBF67"/>
<path d="M14.9439 17.3768C14.9439 18.5191 14.1793 19.4473 13.2379 19.4473C12.2939 19.4473 11.5352 18.5191 11.5352 17.3768C11.5352 16.2286 12.2939 15.3071 13.2379 15.3071C14.1801 15.3071 14.9439 16.2261 14.9439 17.3768ZM23.0523 17.3768C23.0523 18.5191 22.2902 19.4473 21.3496 19.4473C20.4024 19.4473 19.6369 18.5191 19.6369 17.3768C19.6369 16.2286 20.4032 15.3071 21.3496 15.3071C22.2902 15.3071 23.0523 16.2261 23.0523 17.3768Z" fill="#25333A"/>
<path d="M17.1897 27.4218C17.9751 27.4218 18.6118 26.7851 18.6118 25.9997C18.6118 25.2143 17.9751 24.5776 17.1897 24.5776C16.4043 24.5776 15.7676 25.2143 15.7676 25.9997C15.7676 26.7851 16.4043 27.4218 17.1897 27.4218Z" fill="#633F1A"/>
<path d="M22.4693 22.7119C22.4688 24.1568 21.8946 25.5424 20.8729 26.5641C19.8513 27.5858 18.4657 28.16 17.0208 28.1604C15.5758 28.1602 14.1901 27.5861 13.1683 26.5643C12.1466 25.5426 11.5725 24.1569 11.5723 22.7119" fill="#633F1A"/>
<path d="M21.5323 23.2583C21.5323 24.4612 19.4718 25.4367 16.929 25.4367C14.3861 25.4367 12.3223 24.4621 12.3223 23.2583" fill="white"/>
<path d="M20.8133 5.08861C20.9444 3.07127 18.175 1.99286 16.6798 1.78531C15.1821 1.57942 14.1427 1.90569 12.9456 2.34984C9.50368 3.62251 7.20905 6.61283 5.55865 9.64134C3.27564 12.9787 1.66674 16.5427 2.22131 20.7534C2.54425 23.2132 3.6733 25.5269 4.94846 27.658C5.75955 29.0112 6.70845 30.2814 7.48633 31.6537C7.98942 32.542 7.37011 35.6493 5.75955 35.7805C4.14982 35.9067 4.17224 39.8783 7.91388 39.865C11.4189 39.8501 12.7157 36.7452 11.9876 33.9334C11.2595 31.1232 8.13554 29.8846 7.68143 27.4148C7.28211 25.2363 7.19992 21.8459 7.87154 19.7522C8.4178 17.8319 9.70873 14.6806 11.1549 13.2958C13.0975 11.4337 13.5027 11.3714 14.792 10.0398C16.8433 7.9295 21.1694 8.04573 20.8133 5.08861Z" fill="#EE97C9"/>
<path d="M20.8037 4.92471C19.6099 6.06953 18.3132 7.12137 16.9965 8.15994C14.4022 10.2113 11.3745 11.7405 9.45844 14.461C7.16547 17.722 5.85378 21.0793 6.24314 25.0392C6.53121 27.9316 8.67226 29.8302 9.45346 32.5076C10.1832 35.0064 9.15958 39.4247 5.34156 37.5053C4.25817 36.9632 4.8393 39.8721 7.90019 39.8605C11.4069 39.8472 12.7111 36.7407 11.9847 33.9305C11.2566 31.1203 9.21022 30.0619 8.3352 27.4102C7.64034 25.3066 7.19702 21.8414 7.86864 19.7485C9.92501 13.8417 13.5471 11.6567 14.9418 10.4313C15.5138 9.9274 20.0458 6.97277 20.8029 5.07995C20.8054 5.02848 20.8013 4.97618 20.8013 4.92139" fill="#EE97C9"/>
<path d="M3.54279 24.8376C3.05132 21.3815 3.77192 17.8765 5.49704 14.784C7.1956 11.7398 9.18306 9.19275 12.2224 7.22605C13.9882 6.08288 16.9345 4.41919 18.8007 2.45249C18.1288 2.12539 17.4115 1.90095 16.673 1.78668C15.177 1.58079 14.1368 1.90789 12.9372 2.35204C9.49521 3.62471 7.2039 6.6142 5.55018 9.64437C3.27049 12.9817 1.65993 16.544 2.21284 20.7564C2.4154 22.3047 2.93759 23.7932 3.61419 25.217C3.59177 25.0899 3.56023 24.9629 3.54279 24.8376Z" fill="#EE97C9"/>
<path d="M29.0873 11.2692C27.8595 6.70818 24.6326 2.14299 20.8569 3.1417C18.314 3.81415 16.789 7.21542 16.9998 8.16432C17.3967 9.92348 20.7324 10.5303 22.4691 12.5062C23.9817 14.228 25.2859 15.45 26.5602 17.2773C27.6959 18.9094 26.7404 22.6045 26.7852 23.6805C26.8276 24.7614 25.9974 27.5226 25.2901 28.6309C24.8899 29.2626 25.6072 30.1094 26.0995 29.6013C30.5534 24.9697 30.8448 17.8152 29.0873 11.2709" fill="#EE97C9"/>
<path d="M25.9865 11.6179C27.9872 13.5929 29.1412 15.8369 29.7572 18.496C29.8784 19.0248 29.9622 19.586 30.0162 20.173C30.2436 17.2698 29.8742 14.2089 29.0855 11.2659C27.8577 6.70573 24.6299 2.14055 20.8543 3.13926C19.0677 3.61164 17.8772 5.41978 17.3359 6.78875C19.4429 9.06097 23.7915 9.447 25.9865 11.6179Z" fill="#EE97C9"/>
<path d="M26.1175 16.8257C27.2565 18.457 26.7343 22.5988 26.7792 23.6764C26.8215 24.7548 25.9913 27.5184 25.2848 28.6242C24.9951 29.085 25.2907 29.6445 25.6609 29.7317C29.0331 24.9689 29.9081 16.9627 25.7506 13.5722C23.0674 11.3863 19.4312 10.7031 17.0195 8.4873C17.9983 10.1643 19.437 11.3489 21.5332 12.7221C23.5406 14.0371 24.8432 15.0018 26.1175 16.8257Z" fill="#EE97C9"/>
<path opacity="0.6" d="M17.9934 21.151C17.9934 21.6134 17.5999 21.6051 17.0644 21.6051C16.5265 21.6051 16.0508 21.6151 16.0508 21.151C16.0508 20.6853 16.4858 20.3125 17.0221 20.3125C17.5567 20.3125 17.9934 20.6836 17.9934 21.151Z" fill="#C07929"/>
<path d="M32.5413 47.3036H20.6855C20.5908 47.3036 21.2201 52.3603 21.2201 53.041C21.2201 53.09 32.1121 53.1365 32.1121 53.1365C32.1121 53.1365 32.6401 47.3003 32.5397 47.3003" fill="#1E75B8"/>
<path d="M21.5264 53.587H31.6157C31.702 53.587 31.2122 52.5618 31.2122 51.9806C31.2122 51.9383 21.9415 51.8984 21.9415 51.8984C21.9415 51.8984 21.4459 53.587 21.5264 53.587Z" fill="#1E75B8"/>
<path d="M16.4922 42.4032C16.4922 46.4827 21.0208 49.7885 26.6138 49.7885C32.2018 49.7885 36.7313 46.4852 36.7313 42.4032C36.7313 38.327 32.2026 28.2734 26.6138 28.2734C21.02 28.2718 16.4922 38.327 16.4922 42.4032Z" fill="#FBBF67"/>
<path d="M39.2395 35.3563C38.5305 33.422 37.5418 32.6258 36.1778 31.7873C36.4027 31.5441 36.6385 31.2261 36.9565 30.7737C37.086 30.5819 37.2778 29.9991 36.8834 30.0315C33.8914 30.303 31.3527 27.1914 27.3363 27.5567C24.7179 27.7958 19.6007 29.3856 19.2536 29.6944C17.1981 31.4868 16.0134 34.3626 15.4199 37.328C15.2754 38.0436 16.1803 37.5181 16.3513 37.3413C16.4127 37.2724 16.4908 37.2192 16.5514 37.1553C16.5796 38.6554 16.358 40.1365 16.4717 41.64C16.5331 42.4511 17.795 41.0854 17.9013 40.755C18.1918 39.8235 18.5173 38.9734 18.9133 38.1075C18.9788 37.9515 18.9913 37.8593 18.9788 37.7854C19.0381 37.7223 19.0871 37.6503 19.1241 37.5721C19.7742 35.8826 20.7006 34.4763 21.8845 33.3132C23.696 33.51 25.0375 35.4509 27.6443 34.6357C32.6852 33.0509 34.4767 36.6697 35.6921 41.904C35.8565 42.6395 36.9349 41.5462 37.0536 41.2016C37.7651 39.2084 37.5285 37.7945 37.1366 36.0495C37.4222 36.2396 37.7003 36.4472 37.9535 36.7053C38.3778 37.0233 39.4504 35.925 39.2395 35.3563Z" fill="#633C17"/>
<path d="M24.657 42.6448C24.657 43.6419 23.9878 44.453 23.1635 44.453C22.3391 44.453 21.6758 43.6419 21.6758 42.6448C21.6758 41.6444 22.3408 40.8325 23.1635 40.8325C23.9878 40.8325 24.657 41.6453 24.657 42.6448ZM31.7351 42.6448C31.7351 43.6419 31.0652 44.453 30.2416 44.453C29.4214 44.453 28.7564 43.6419 28.7564 42.6448C28.7564 41.6444 29.4231 40.8325 30.2416 40.8325C31.0693 40.8325 31.7351 41.6453 31.7351 42.6448Z" fill="#25333A"/>
<path opacity="0.6" d="M25.8984 45.1766C25.8984 44.836 26.1884 44.8418 26.5855 44.8418C26.9801 44.8418 27.3323 44.8352 27.3323 45.1766C27.3323 45.5205 27.0117 45.7964 26.6146 45.7964C26.2199 45.7964 25.8984 45.5214 25.8984 45.1766Z" fill="#C27929"/>
<path d="M29.2787 46.6523C29.2787 47.3594 28.998 48.0376 28.4984 48.5379C27.9987 49.0382 27.3209 49.3197 26.6138 49.3206C25.9065 49.3201 25.2282 49.0388 24.7282 48.5385C24.2282 48.0381 23.9473 47.3597 23.9473 46.6523" fill="#633F1A"/>
<path d="M28.8215 46.9204C28.8215 47.509 27.812 47.9855 26.5684 47.9855C25.3231 47.9855 24.3145 47.509 24.3145 46.9204" fill="white"/>
</svg>
