<svg width="68" height="67" viewBox="0 0 68 67" fill="none" xmlns="http://www.w3.org/2000/svg">
<path d="M38.3687 27.1783C38.3687 27.1783 36.4332 33.7193 35.6273 35.5835L33.2203 41.6255C32.8365 42.4753 33.1765 43.5883 33.9824 44.0544C34.909 44.5862 36.2523 44.186 36.6964 43.2155L43.5719 28.7354L43.0181 26.8384L38.3687 27.1783Z" fill="url(#paint0_linear_77_24282)"/>
<path d="M56.7889 39.0264V65.3877H53.6911L49.3762 44.4379C49.3542 44.3063 49.2446 44.2131 49.1239 44.2131C49.0033 44.2131 48.8937 44.3063 48.8717 44.4379L44.5568 65.3877H41.459V39.0264H56.7889Z" fill="#7C7C7C"/>
<path d="M55.1732 66.1062H57.613C58.0626 66.0953 58.3861 65.5799 58.2545 65.1303C57.8488 63.7596 56.6152 62.7617 55.1732 62.7617C53.7038 62.7617 52.4537 63.8035 52.0699 65.207C51.9493 65.6566 52.2838 66.1007 52.7333 66.1007C52.7333 66.1062 55.1732 66.1062 55.1732 66.1062ZM43.0836 66.1062H40.6438C40.1942 66.0953 39.8707 65.5799 40.0023 65.1303C40.408 63.7596 41.6416 62.7617 43.0836 62.7617C44.553 62.7617 45.8031 63.8035 46.1869 65.207C46.3075 65.6566 45.973 66.1007 45.5235 66.1007C45.5235 66.1062 43.0836 66.1062 43.0836 66.1062Z" fill="#424242"/>
<path d="M53.7969 27.7811L59.1152 27.4521C59.1152 27.4521 61.5825 32.935 62.4049 34.7607C62.4049 34.7607 64.7296 38.2259 65.7878 39.7885C66.8185 40.8412 67.0817 41.2249 67.4545 42.634C67.8657 44.1857 67.6739 45.0355 67.4765 45.4083C67.2846 45.7866 66.2428 46.7571 65.6013 46.165C64.9215 45.5344 64.9708 43.3029 64.3348 43.4564C64.0059 43.5387 64.4225 44.2021 64.4609 44.86C64.4993 45.518 63.9949 45.6331 63.6385 45.4522C63.4576 45.359 62.6242 43.9664 62.6242 43.9664L62.2678 41.6581L53.9723 30.0181L53.7969 27.7811Z" fill="url(#paint1_linear_77_24282)"/>
<path d="M43.2911 22.7209C44.6179 22.37 46.9371 22.1397 49.1303 22.1397C51.3234 22.1343 53.6207 22.37 54.9475 22.7209C59.087 23.823 60.1123 25.7694 61.346 29.1084L56.8062 30.8629V40.8854H41.4543V30.8629L36.8652 29.1084C38.0989 25.7694 39.1516 23.823 43.2911 22.7209Z" fill="url(#paint2_linear_77_24282)"/>
<path d="M57.3725 18.4109C57.0764 17.8736 57.4547 17.3253 58.0962 16.6455C59.116 15.5708 60.229 13.0762 59.1982 10.5376C59.2037 10.5212 58.9954 10.0935 59.0008 10.0825L58.5732 10.0606C58.4361 10.0387 53.7702 10.0332 49.0989 10.0332C44.4276 10.0332 39.7617 10.0442 39.6246 10.0606C39.6246 10.0606 38.9941 10.5212 38.9996 10.5376C37.9688 13.0707 39.0763 15.5654 40.1016 16.6455C40.7431 17.3253 41.1214 17.8736 40.8254 18.4109C40.5402 18.9318 39.6849 19.0085 39.6849 19.0085C39.6849 19.0085 39.8823 19.5459 40.3538 19.831C40.7925 20.0996 41.3353 20.1599 41.7081 20.1709C41.7081 20.1709 43.1665 22.1886 46.9771 22.1886H51.2207C55.0313 22.1886 56.4897 20.1709 56.4897 20.1709C56.8626 20.1599 57.3999 20.0996 57.844 19.831C58.321 19.5404 58.5129 19.0085 58.5129 19.0085C58.5129 19.0085 57.6576 18.9318 57.3725 18.4109Z" fill="#AB872F"/>
<path d="M39.0048 10.5375C37.996 12.9938 39.0596 15.5159 40.052 16.585C40.1891 16.733 40.7648 17.2978 40.8964 17.7528C40.8964 17.7528 43.1553 14.6002 43.8352 12.747C43.9722 12.3742 44.0929 11.9849 44.1093 11.5902C44.1203 11.2941 44.0764 10.9377 43.901 10.6855C43.6926 10.373 43.4459 10.4552 43.084 10.4552C42.3987 10.4552 39.416 10.2798 39.1803 10.2798C39.1858 10.2798 39.0048 10.5375 39.0048 10.5375Z" fill="url(#paint3_radial_77_24282)"/>
<path d="M49.1051 20.4452H46.3637V23.3511C46.3637 24.6669 47.4821 25.7306 48.8528 25.7306H49.3573C50.7334 25.7306 51.8465 24.6669 51.8465 23.3511V20.4452H49.1051ZM55.6734 11.4644H42.5421C41.1276 11.4644 39.9707 12.698 39.9707 14.2058C39.9707 15.7135 41.1276 16.9472 42.5421 16.9472H55.6734C57.088 16.9472 58.2449 15.7135 58.2449 14.2058C58.2449 12.698 57.088 11.4644 55.6734 11.4644Z" fill="#C48E6A"/>
<path d="M49.105 1.77051C44.9271 1.77051 41.0508 6.23899 41.0508 12.6758C41.0508 19.0742 45.0423 22.2378 49.105 22.2378C53.1678 22.2378 57.1593 19.0742 57.1593 12.6758C57.1538 6.23899 53.2829 1.77051 49.105 1.77051Z" fill="#E0BB95"/>
<path d="M58.5997 5.43342C58.0185 4.55617 56.7246 3.38285 55.5622 3.30609C55.3758 2.1876 54.1806 1.23908 53.0182 0.871728C49.8821 -0.120659 47.8425 0.99235 46.7459 1.58998C46.5156 1.71608 45.0462 2.53302 44.0155 1.94636C43.3685 1.57901 43.3795 0.586623 43.3795 0.586623C43.3795 0.586623 41.3563 1.35421 42.0471 3.50347C41.3563 3.53089 40.4407 3.82696 39.9582 4.79742C39.3825 5.95977 39.5854 6.93023 39.7553 7.39626C39.1577 7.90068 38.4066 8.98079 38.9219 10.3844C39.3112 11.4371 40.8574 11.9251 40.8574 11.9251C40.7477 13.8221 41.1041 14.9899 41.2905 15.4669C41.3234 15.5492 41.4385 15.5437 41.4605 15.456C41.6962 14.5184 42.4967 11.2397 42.4145 10.664C42.4145 10.664 45.1011 10.1322 47.667 8.24061C48.1879 7.85682 48.7526 7.52785 49.3557 7.28661C52.5796 6.00363 53.254 8.19127 53.254 8.19127C53.254 8.19127 55.4855 7.76361 56.1599 10.8614C56.4121 12.0237 56.5875 13.8824 56.7301 15.1873C56.741 15.2805 56.8672 15.297 56.9001 15.2147C57.1248 14.6994 57.5744 13.6741 57.6841 12.6269C57.7225 12.2595 58.7149 11.7715 59.137 10.1925C59.7182 8.09258 59.0164 6.06943 58.5997 5.43342Z" fill="#AB872F"/>
<path d="M51.1271 17.852C50.3595 18.3071 47.8538 18.3071 47.0863 17.852C46.6476 17.5889 46.198 17.9891 46.379 18.3893C46.5599 18.7841 47.9251 19.6942 49.1094 19.6942C50.2937 19.6942 51.6425 18.7841 51.8234 18.3893C52.0043 17.9891 51.5657 17.5889 51.1271 17.852Z" fill="#6D4C41"/>
<path d="M50.0284 15.8833C50.0033 15.8741 49.9777 15.8668 49.9516 15.8613H48.2519C48.2245 15.8668 48.1971 15.8723 48.1752 15.8833C48.0217 15.9436 47.9339 16.1026 48.0107 16.278C48.082 16.448 48.4219 16.925 49.1018 16.925C49.7816 16.925 50.1216 16.448 50.1928 16.278C50.2641 16.1081 50.1819 15.9491 50.0284 15.8833Z" fill="#C48E6A"/>
<path d="M45.155 14.8801C45.809 14.8801 46.3393 14.3303 46.3393 13.652C46.3393 12.9737 45.809 12.4238 45.155 12.4238C44.5009 12.4238 43.9707 12.9737 43.9707 13.652C43.9707 14.3303 44.5009 14.8801 45.155 14.8801Z" fill="#5D4037"/>
<path d="M53.0495 14.8801C53.7036 14.8801 54.2338 14.3303 54.2338 13.652C54.2338 12.9737 53.7036 12.4238 53.0495 12.4238C52.3955 12.4238 51.8652 12.9737 51.8652 13.652C51.8652 14.3303 52.3955 14.8801 53.0495 14.8801Z" fill="#5D4037"/>
<path d="M51.2977 11.4534C51.5225 11.1574 52.0434 10.7188 53.0577 10.7188C54.072 10.7188 54.5929 11.1519 54.8177 11.4534C54.9164 11.585 54.8944 11.7386 54.8232 11.8318C54.7574 11.9195 54.5709 11.9962 54.3626 11.925C54.1543 11.8537 53.743 11.6453 53.0632 11.6399C52.3778 11.6453 51.9721 11.8537 51.7638 11.925C51.5554 11.9962 51.3635 11.9195 51.3032 11.8318C51.2573 11.7797 51.2315 11.713 51.2305 11.6436C51.2294 11.5742 51.2533 11.5068 51.2977 11.4534ZM43.3915 11.4534C43.6163 11.1574 44.1372 10.7188 45.1515 10.7188C46.1658 10.7188 46.6867 11.1519 46.9115 11.4534C47.0102 11.585 46.9882 11.7386 46.917 11.8318C46.8512 11.9195 46.6647 11.9962 46.4564 11.925C46.2481 11.8537 45.8368 11.6453 45.157 11.6399C44.4716 11.6453 44.0659 11.8537 43.8576 11.925C43.6492 11.9962 43.4573 11.9195 43.397 11.8318C43.3534 11.7786 43.3292 11.7123 43.3282 11.6436C43.3272 11.5748 43.3495 11.5078 43.3915 11.4534Z" fill="#AB872F"/>
<path d="M11.2656 39.0264V65.3877H14.3634L18.6784 44.4379C18.7003 44.3063 18.81 44.2131 18.9306 44.2131C19.0512 44.2131 19.1609 44.3063 19.1828 44.4379L23.4978 65.3877H26.5955V39.0264H11.2656Z" fill="#7C7C7C"/>
<path d="M12.8824 66.1062H10.4426C9.993 66.0953 9.66952 65.5799 9.8011 65.1303C10.2068 63.7596 11.4405 62.7617 12.8824 62.7617C14.3518 62.7617 15.6019 63.8035 15.9857 65.207C16.1063 65.6566 15.7719 66.1007 15.3223 66.1007C15.3223 66.1062 12.8824 66.1062 12.8824 66.1062ZM24.972 66.1062H27.4119C27.8615 66.0953 28.1849 65.5799 28.0534 65.1303C27.6476 63.7596 26.414 62.7617 24.972 62.7617C23.5026 62.7617 22.2525 63.8035 21.8687 65.207C21.7481 65.6566 22.0826 66.1007 22.5322 66.1007C22.5322 66.1062 24.972 66.1062 24.972 66.1062Z" fill="#424242"/>
<path d="M14.2605 27.7811L8.94217 27.4521C8.94217 27.4521 6.47491 32.935 5.65249 34.7607C5.65249 34.7607 3.32778 38.2259 2.2696 39.7885C1.23883 40.8412 0.975658 41.225 0.602827 42.634C0.191617 44.1857 0.383515 45.0355 0.580896 45.4083C0.778277 45.7812 1.81453 46.7571 2.45601 46.165C3.13588 45.5344 3.08654 43.3029 3.72254 43.4565C4.05151 43.5387 3.63482 44.2021 3.59644 44.86C3.55806 45.518 4.06248 45.6331 4.41886 45.4522C4.59979 45.359 5.43318 43.9664 5.43318 43.9664L5.78956 41.6581L14.085 30.0126L14.2605 27.7811Z" fill="url(#paint4_linear_77_24282)"/>
<path d="M24.6445 29.6342L32.4027 42.5242C32.4027 42.5242 31.5638 43.9607 32.1889 45.2163C33.0661 45.8468 33.4609 43.9717 33.8008 43.9224C34.4533 43.8237 35.4895 46.4225 36.1803 46.4225C37.5017 46.9927 38.1158 45.2273 38.1377 44.1855C38.6366 42.3707 35.1934 40.4627 35.1934 40.4627C34.2723 38.8179 32.633 35.0896 32.633 35.0896C31.9696 33.198 29.9903 27.5233 29.9903 27.5233L24.6665 27.3862L24.6445 29.6342Z" fill="url(#paint5_linear_77_24282)"/>
<path d="M24.7267 22.7209C23.3999 22.37 21.0807 22.1397 18.8876 22.1397C16.6944 22.1343 14.3971 22.37 13.0703 22.7209C8.93079 23.823 7.90551 25.7694 6.67188 29.1084L11.2116 30.8629V40.8854H26.5635V30.8629L31.1526 29.1084C29.9135 25.7694 28.8608 23.823 24.7267 22.7209Z" fill="url(#paint6_linear_77_24282)"/>
<path d="M18.9094 20.4452H21.6508V23.3511C21.6508 24.6669 20.5378 25.7306 19.1561 25.7306H18.6572C17.281 25.7306 16.1625 24.6669 16.1625 23.3511V20.4452H18.9094ZM25.4723 11.4644H12.341C10.9264 11.4644 9.76953 12.698 9.76953 14.2058C9.76953 15.7135 10.9264 16.9472 12.341 16.9472H25.4723C26.8868 16.9472 28.0437 15.7135 28.0437 14.2058C28.0437 12.698 26.8868 11.4644 25.4723 11.4644Z" fill="#99674F"/>
<path d="M18.9058 1.77051C14.7279 1.77051 10.8516 6.23899 10.8516 12.6758C10.8516 19.0742 14.843 22.2378 18.9058 22.2378C22.9686 22.2378 26.96 19.0742 26.96 12.6758C26.96 6.23899 23.0837 1.77051 18.9058 1.77051Z" fill="#BA8D68"/>
<path d="M20.9259 17.852C20.1583 18.3071 17.6527 18.3071 16.8851 17.852C16.4465 17.5889 15.9969 17.9891 16.1778 18.3893C16.3587 18.7841 17.7239 19.6942 18.9082 19.6942C20.0925 19.6942 21.4413 18.7841 21.6222 18.3893C21.8086 17.9891 21.3645 17.5889 20.9259 17.852Z" fill="#5D4037"/>
<path d="M28.4009 5.43331C27.8197 4.55606 26.5258 3.38274 25.3634 3.30598C25.177 2.18749 23.9817 1.24445 22.8194 0.877099C19.6832 -0.115288 17.6436 0.997721 16.5471 1.59535C16.3168 1.72145 14.8474 2.53839 13.8166 1.95173C13.1697 1.58438 13.1806 0.591994 13.1806 0.591994C13.1806 0.591994 11.1575 1.35959 11.8538 3.50884C11.163 3.53626 10.2473 3.83233 9.76484 4.80279C9.18914 5.96514 9.39749 6.9356 9.56197 7.40163C8.96435 7.90605 8.2132 8.98617 8.72858 10.3898C9.11786 11.4425 10.664 11.9304 10.664 11.9304C10.5544 13.8275 10.9107 14.9953 11.0972 15.4723C11.1301 15.5546 11.2452 15.5491 11.2671 15.4614C11.5029 14.5238 12.3034 11.2451 12.2211 10.6694C12.2211 10.6694 14.9132 10.1376 17.4737 8.24599C17.9945 7.86219 18.5593 7.53322 19.1624 7.29198C22.3862 6.009 23.0551 8.19664 23.0551 8.19664C23.0551 8.19664 25.2867 7.76898 25.961 10.8668C26.2132 12.0291 26.3887 13.8878 26.5312 15.1927C26.5422 15.2859 26.6683 15.3024 26.7012 15.2201C26.926 14.7047 27.3756 13.6794 27.4853 12.6322C27.5236 12.2649 28.516 11.7769 28.9382 10.1979C29.5194 8.09247 28.8231 6.06931 28.4009 5.43331Z" fill="#543930"/>
<path d="M19.8291 15.8833C19.8041 15.8741 19.7785 15.8668 19.7524 15.8613H18.0527C18.0253 15.8668 17.9979 15.8723 17.976 15.8833C17.8224 15.9436 17.7347 16.1026 17.8115 16.278C17.8882 16.4535 18.2227 16.925 18.9026 16.925C19.5824 16.925 19.9224 16.448 19.9936 16.278C20.0649 16.1081 19.9827 15.9491 19.8291 15.8833Z" fill="#99674F"/>
<path d="M14.9577 14.8801C15.6118 14.8801 16.142 14.3303 16.142 13.652C16.142 12.9737 15.6118 12.4238 14.9577 12.4238C14.3037 12.4238 13.7734 12.9737 13.7734 13.652C13.7734 14.3303 14.3037 14.8801 14.9577 14.8801Z" fill="#49362E"/>
<path d="M22.8523 14.8801C23.5063 14.8801 24.0365 14.3303 24.0365 13.652C24.0365 12.9737 23.5063 12.4238 22.8523 12.4238C22.1982 12.4238 21.668 12.9737 21.668 13.652C21.668 14.3303 22.1982 14.8801 22.8523 14.8801Z" fill="#49362E"/>
<path d="M21.0969 11.4534C21.3217 11.1574 21.8426 10.7188 22.8569 10.7188C23.8712 10.7188 24.3921 11.1519 24.6169 11.4534C24.7156 11.585 24.6936 11.7386 24.6224 11.8318C24.5566 11.9195 24.3701 11.9962 24.1618 11.925C23.9535 11.8537 23.5422 11.6453 22.8624 11.6399C22.177 11.6453 21.7713 11.8537 21.563 11.925C21.3546 11.9962 21.1627 11.9195 21.1024 11.8318C21.0575 11.7793 21.0323 11.7127 21.0313 11.6436C21.0303 11.5745 21.0535 11.5072 21.0969 11.4534ZM13.1962 11.4534C13.421 11.1574 13.9419 10.7188 14.9562 10.7188C15.965 10.7188 16.4914 11.1519 16.7162 11.4534C16.8149 11.585 16.7929 11.7386 16.7216 11.8318C16.6558 11.9195 16.4694 11.9962 16.2611 11.925C16.0527 11.8537 15.6415 11.6453 14.9617 11.6399C14.2763 11.6453 13.8706 11.8537 13.6622 11.925C13.4539 11.9962 13.262 11.9195 13.2017 11.8318C13.1557 11.7797 13.1299 11.713 13.1289 11.6436C13.1279 11.5742 13.1518 11.5068 13.1962 11.4534Z" fill="#613E31"/>
<path d="M35.8366 45.4904C35.7489 45.452 35.6612 45.4301 35.5625 45.4301C35.5405 45.4301 35.5241 45.4355 35.5022 45.441L35.5296 45.3862C35.6831 45.0463 35.5515 44.6405 35.228 44.476C35.1403 44.4322 35.0471 44.4103 34.9484 44.4103C34.91 44.4103 34.8716 44.4212 34.8333 44.4267C34.9703 44.0977 34.8497 43.7085 34.5427 43.544C34.4495 43.4946 34.3508 43.4672 34.2466 43.4672C34.104 43.4672 33.967 43.522 33.8573 43.6098C33.8189 43.4069 33.6983 43.215 33.4955 43.1108C33.4022 43.0615 33.3036 43.0396 33.2049 43.0396C32.9527 43.0396 32.7279 43.1876 32.6182 43.4233L32.1138 44.498C31.9548 44.8379 32.0864 45.2601 32.4318 45.4355C32.525 45.4849 32.6237 45.5068 32.7279 45.5068C32.832 45.5068 32.9252 45.4739 33.013 45.4301C33.0185 45.4849 33.013 45.5397 33.0294 45.5891C33.0842 45.7645 33.1939 45.9071 33.3474 45.9893C33.4406 46.0386 33.5393 46.0661 33.6435 46.0661C33.7586 46.0661 33.8628 46.0332 33.956 45.9783C33.9889 46.1922 34.104 46.395 34.3014 46.4937C34.3892 46.5376 34.4824 46.5595 34.5811 46.5595C34.6688 46.5595 34.751 46.5376 34.8223 46.4992C34.8662 46.7075 34.9868 46.894 35.1787 46.9872C35.2664 47.0255 35.3541 47.0475 35.4528 47.0475C35.7105 47.0475 35.9463 46.8885 36.0504 46.6418L36.1491 46.4115C36.3136 46.0661 36.1656 45.6494 35.8366 45.4904Z" fill="#E0BB95"/>
<defs>
<linearGradient id="paint0_linear_77_24282" x1="41.1184" y1="28.4918" x2="33.9916" y2="41.854" gradientUnits="userSpaceOnUse">
<stop stop-color="#CCA47A"/>
<stop offset="0.405" stop-color="#E0BB95"/>
</linearGradient>
<linearGradient id="paint1_linear_77_24282" x1="55.786" y1="27.4478" x2="66.455" y2="45.5964" gradientUnits="userSpaceOnUse">
<stop stop-color="#CCA47A"/>
<stop offset="0.401" stop-color="#E0BB95"/>
</linearGradient>
<linearGradient id="paint2_linear_77_24282" x1="49.1061" y1="22.1419" x2="49.1061" y2="40.8854" gradientUnits="userSpaceOnUse">
<stop offset="0.366" stop-color="#F78C1F"/>
<stop offset="0.672" stop-color="#F47F12"/>
<stop offset="1" stop-color="#EF6C00"/>
</linearGradient>
<radialGradient id="paint3_radial_77_24282" cx="0" cy="0" r="1" gradientUnits="userSpaceOnUse" gradientTransform="translate(44.4314 13.4895) rotate(-85.7217) scale(7.2054 6.00524)">
<stop offset="0.725" stop-color="#BFA055" stop-opacity="0"/>
<stop offset="1" stop-color="#BFA055"/>
</radialGradient>
<linearGradient id="paint4_linear_77_24282" x1="12.2724" y1="27.4478" x2="1.60344" y2="45.5969" gradientUnits="userSpaceOnUse">
<stop stop-color="#A47B62"/>
<stop offset="0.401" stop-color="#BA8D68"/>
</linearGradient>
<linearGradient id="paint5_linear_77_24282" x1="26.929" y1="27.1114" x2="36.0421" y2="46.2587" gradientUnits="userSpaceOnUse">
<stop stop-color="#A47B62"/>
<stop offset="0.401" stop-color="#BA8D68"/>
</linearGradient>
<linearGradient id="paint6_linear_77_24282" x1="6.66749" y1="31.5137" x2="31.1471" y2="31.5137" gradientUnits="userSpaceOnUse">
<stop offset="0.172" stop-color="#4FC3F7"/>
<stop offset="0.369" stop-color="#42BFF6"/>
<stop offset="0.732" stop-color="#20B3F5"/>
<stop offset="0.994" stop-color="#03A9F4"/>
</linearGradient>
</defs>
</svg>
