<svg width="284" height="284" viewBox="0 0 284 284" fill="none" xmlns="http://www.w3.org/2000/svg">
<rect x="0.53125" y="0.0473633" width="283" height="283" rx="141.5" fill="url(#paint0_radial_77_24414)"/>
<path d="M105.245 136.626C102.577 136.626 100.102 136.192 97.8204 135.324C95.5705 134.456 93.6099 133.235 91.9386 131.66C90.2995 130.085 89.0139 128.237 88.0818 126.116C87.1818 123.995 86.7319 121.681 86.7319 119.174C86.7319 116.667 87.1818 114.353 88.0818 112.231C89.0139 110.11 90.3155 108.262 91.9869 106.687C93.6582 105.112 95.6187 103.891 97.8686 103.023C100.118 102.155 102.561 101.721 105.197 101.721C107.864 101.721 110.307 102.155 112.525 103.023C114.774 103.891 116.719 105.112 118.358 106.687C120.029 108.262 121.331 110.11 122.263 112.231C123.195 114.32 123.661 116.634 123.661 119.174C123.661 121.681 123.195 124.011 122.263 126.164C121.331 128.285 120.029 130.134 118.358 131.708C116.719 133.251 114.774 134.456 112.525 135.324C110.307 136.192 107.88 136.626 105.245 136.626ZM105.197 129.973C106.707 129.973 108.089 129.716 109.343 129.201C110.628 128.687 111.753 127.948 112.717 126.984C113.682 126.02 114.421 124.879 114.935 123.561C115.482 122.243 115.755 120.781 115.755 119.174C115.755 117.567 115.482 116.104 114.935 114.786C114.421 113.469 113.682 112.328 112.717 111.363C111.785 110.399 110.677 109.66 109.391 109.146C108.105 108.631 106.707 108.374 105.197 108.374C103.686 108.374 102.288 108.631 101.002 109.146C99.7488 109.66 98.6399 110.399 97.6757 111.363C96.7115 112.328 95.9562 113.469 95.4098 114.786C94.8956 116.104 94.6384 117.567 94.6384 119.174C94.6384 120.748 94.8956 122.211 95.4098 123.561C95.9562 124.879 96.6954 126.02 97.6275 126.984C98.5917 127.948 99.7166 128.687 101.002 129.201C102.288 129.716 103.686 129.973 105.197 129.973ZM144.604 136.626C139.815 136.626 136.07 135.292 133.37 132.624C130.671 129.957 129.321 126.148 129.321 121.198V102.3H137.131V120.909C137.131 124.123 137.79 126.437 139.108 127.852C140.425 129.266 142.273 129.973 144.652 129.973C147.03 129.973 148.878 129.266 150.196 127.852C151.514 126.437 152.173 124.123 152.173 120.909V102.3H159.886V121.198C159.886 126.148 158.536 129.957 155.837 132.624C153.137 135.292 149.392 136.626 144.604 136.626ZM167.683 136.047V102.3H182.291C185.312 102.3 187.916 102.798 190.101 103.794C192.287 104.759 193.974 106.157 195.163 107.989C196.353 109.821 196.947 112.006 196.947 114.545C196.947 117.052 196.353 119.222 195.163 121.054C193.974 122.854 192.287 124.236 190.101 125.2C187.916 126.164 185.312 126.646 182.291 126.646H172.022L175.493 123.223V136.047H167.683ZM189.137 136.047L180.7 123.802H189.041L197.574 136.047H189.137ZM175.493 124.091L172.022 120.427H181.857C184.268 120.427 186.068 119.913 187.257 118.884C188.446 117.824 189.041 116.377 189.041 114.545C189.041 112.681 188.446 111.235 187.257 110.206C186.068 109.178 184.268 108.664 181.857 108.664H172.022L175.493 104.951V124.091ZM48.2226 181.626C45.5227 181.626 42.9354 181.272 40.4606 180.565C37.9858 179.826 35.9931 178.878 34.4825 177.721L37.1341 171.839C38.5804 172.868 40.2838 173.719 42.2444 174.394C44.2371 175.037 46.2459 175.358 48.2708 175.358C49.8135 175.358 51.0509 175.214 51.983 174.925C52.9472 174.603 53.6543 174.169 54.1043 173.623C54.5542 173.077 54.7792 172.45 54.7792 171.743C54.7792 170.843 54.4257 170.136 53.7186 169.621C53.0115 169.075 52.0794 168.641 50.9224 168.32C49.7653 167.966 48.4797 167.645 47.0655 167.355C45.6835 167.034 44.2853 166.648 42.8712 166.198C41.4891 165.748 40.2196 165.17 39.0625 164.463C37.9054 163.756 36.9573 162.824 36.2181 161.667C35.511 160.51 35.1574 159.031 35.1574 157.231C35.1574 155.303 35.6717 153.551 36.7002 151.976C37.7608 150.369 39.3357 149.1 41.4248 148.168C43.5461 147.203 46.1977 146.721 49.3796 146.721C51.5009 146.721 53.59 146.978 55.647 147.493C57.704 147.975 59.5199 148.714 61.0948 149.71L58.6843 155.64C57.1094 154.74 55.5345 154.081 53.9596 153.664C52.3848 153.214 50.842 152.989 49.3314 152.989C47.8208 152.989 46.5834 153.165 45.6192 153.519C44.655 153.873 43.9639 154.339 43.5461 154.917C43.1283 155.464 42.9194 156.106 42.9194 156.846C42.9194 157.713 43.2729 158.42 43.98 158.967C44.6871 159.481 45.6192 159.899 46.7762 160.22C47.9333 160.542 49.2028 160.863 50.5849 161.185C51.9991 161.506 53.3972 161.876 54.7792 162.293C56.1934 162.711 57.479 163.274 58.6361 163.981C59.7931 164.688 60.7252 165.62 61.4323 166.777C62.1715 167.934 62.5412 169.396 62.5412 171.164C62.5412 173.06 62.0108 174.796 60.9502 176.371C59.8896 177.946 58.2986 179.215 56.1773 180.18C54.0882 181.144 51.4366 181.626 48.2226 181.626ZM75.1403 160.895H91.3873V166.97H75.1403V160.895ZM75.7188 174.78H94.0871V181.047H67.9568V147.3H93.4604V153.567H75.7188V174.78ZM100.38 181.047V147.3H114.988C118.009 147.3 120.613 147.798 122.798 148.794C124.984 149.759 126.671 151.157 127.861 152.989C129.05 154.821 129.644 157.006 129.644 159.545C129.644 162.052 129.05 164.222 127.861 166.054C126.671 167.854 124.984 169.236 122.798 170.2C120.613 171.164 118.009 171.646 114.988 171.646H104.719L108.191 168.223V181.047H100.38ZM121.834 181.047L113.397 168.802H121.738L130.271 181.047H121.834ZM108.191 169.091L104.719 165.427H114.554C116.965 165.427 118.765 164.913 119.954 163.884C121.143 162.824 121.738 161.377 121.738 159.545C121.738 157.681 121.143 156.235 119.954 155.206C118.765 154.178 116.965 153.664 114.554 153.664H104.719L108.191 149.951V169.091ZM146.035 181.047L131.476 147.3H139.913L152.64 177.19H147.675L160.595 147.3H168.357L153.749 181.047H146.035ZM171.254 181.047V147.3H179.064V181.047H171.254ZM203.303 181.626C200.699 181.626 198.273 181.208 196.023 180.372C193.805 179.505 191.877 178.283 190.237 176.708C188.598 175.134 187.313 173.285 186.381 171.164C185.481 169.043 185.031 166.713 185.031 164.174C185.031 161.634 185.481 159.304 186.381 157.183C187.313 155.062 188.598 153.214 190.237 151.639C191.909 150.064 193.853 148.859 196.071 148.023C198.289 147.155 200.715 146.721 203.351 146.721C206.276 146.721 208.911 147.236 211.257 148.264C213.636 149.26 215.628 150.739 217.235 152.699L212.222 157.328C211.064 156.01 209.779 155.03 208.365 154.387C206.95 153.712 205.408 153.374 203.736 153.374C202.162 153.374 200.715 153.631 199.397 154.146C198.08 154.66 196.939 155.399 195.974 156.363C195.01 157.328 194.255 158.469 193.709 159.786C193.194 161.104 192.937 162.567 192.937 164.174C192.937 165.781 193.194 167.243 193.709 168.561C194.255 169.879 195.01 171.02 195.974 171.984C196.939 172.948 198.08 173.687 199.397 174.201C200.715 174.716 202.162 174.973 203.736 174.973C205.408 174.973 206.95 174.651 208.365 174.009C209.779 173.334 211.064 172.321 212.222 170.971L217.235 175.6C215.628 177.56 213.636 179.055 211.257 180.083C208.911 181.112 206.259 181.626 203.303 181.626ZM229.772 160.895H246.019V166.97H229.772V160.895ZM230.351 174.78H248.719V181.047H222.589V147.3H248.092V153.567H230.351V174.78Z" fill="white"/>
<defs>
<radialGradient id="paint0_radial_77_24414" cx="0" cy="0" r="1" gradientUnits="userSpaceOnUse" gradientTransform="translate(142.031 141.547) rotate(90) scale(141.5)">
<stop offset="0.305" stop-color="#E99FCC"/>
<stop offset="0.8" stop-color="#BFDFE0"/>
</radialGradient>
</defs>
</svg>
